<mxfile host="app.diagrams.net" modified="2023-04-10T12:42:30.744Z" agent="Mozilla/5.0 (Windows NT 10.0; Win64; x64) AppleWebKit/537.36 (KHTML, like Gecko) Chrome/111.0.0.0 Safari/537.36" etag="DWfIHRaJ5NnMNNWBbALl" version="21.1.5" type="github">
  <diagram id="R2lEEEUBdFMjLlhIrx00" name="Page-1">
    <mxGraphModel dx="1260" dy="695" grid="1" gridSize="10" guides="1" tooltips="1" connect="1" arrows="1" fold="1" page="1" pageScale="1" pageWidth="850" pageHeight="1100" math="0" shadow="0" extFonts="Permanent Marker^https://fonts.googleapis.com/css?family=Permanent+Marker">
      <root>
        <mxCell id="0" />
        <mxCell id="1" parent="0" />
        <mxCell id="tpq_mVO97tBHsx010xYn-2" value="學生" style="whiteSpace=wrap;html=1;align=center;" vertex="1" parent="1">
          <mxGeometry x="190" y="260" width="100" height="40" as="geometry" />
        </mxCell>
        <mxCell id="tpq_mVO97tBHsx010xYn-56" value="" style="edgeStyle=orthogonalEdgeStyle;rounded=0;orthogonalLoop=1;jettySize=auto;html=1;endArrow=none;endFill=0;" edge="1" parent="1" source="tpq_mVO97tBHsx010xYn-3" target="tpq_mVO97tBHsx010xYn-45">
          <mxGeometry relative="1" as="geometry" />
        </mxCell>
        <mxCell id="tpq_mVO97tBHsx010xYn-3" value="課程" style="whiteSpace=wrap;html=1;align=center;" vertex="1" parent="1">
          <mxGeometry x="470" y="260" width="100" height="40" as="geometry" />
        </mxCell>
        <mxCell id="tpq_mVO97tBHsx010xYn-5" value="選修" style="shape=rhombus;perimeter=rhombusPerimeter;whiteSpace=wrap;html=1;align=center;" vertex="1" parent="1">
          <mxGeometry x="320" y="250" width="120" height="60" as="geometry" />
        </mxCell>
        <mxCell id="tpq_mVO97tBHsx010xYn-37" style="edgeStyle=orthogonalEdgeStyle;rounded=0;orthogonalLoop=1;jettySize=auto;html=1;entryX=0.5;entryY=0;entryDx=0;entryDy=0;endArrow=none;endFill=0;" edge="1" parent="1" target="tpq_mVO97tBHsx010xYn-2">
          <mxGeometry relative="1" as="geometry">
            <mxPoint x="240" y="220" as="sourcePoint" />
          </mxGeometry>
        </mxCell>
        <mxCell id="tpq_mVO97tBHsx010xYn-38" value="" style="edgeStyle=orthogonalEdgeStyle;rounded=0;orthogonalLoop=1;jettySize=auto;html=1;entryX=0.25;entryY=1;entryDx=0;entryDy=0;endArrow=none;endFill=0;" edge="1" parent="1" source="tpq_mVO97tBHsx010xYn-12" target="tpq_mVO97tBHsx010xYn-2">
          <mxGeometry relative="1" as="geometry" />
        </mxCell>
        <mxCell id="tpq_mVO97tBHsx010xYn-12" value="年紀" style="ellipse;whiteSpace=wrap;html=1;align=center;dashed=1;" vertex="1" parent="1">
          <mxGeometry x="40" y="310" width="100" height="40" as="geometry" />
        </mxCell>
        <mxCell id="tpq_mVO97tBHsx010xYn-20" value="" style="edgeStyle=orthogonalEdgeStyle;rounded=0;orthogonalLoop=1;jettySize=auto;html=1;endArrow=none;endFill=0;" edge="1" parent="1" source="tpq_mVO97tBHsx010xYn-13" target="tpq_mVO97tBHsx010xYn-2">
          <mxGeometry relative="1" as="geometry" />
        </mxCell>
        <mxCell id="tpq_mVO97tBHsx010xYn-13" value="生日" style="ellipse;whiteSpace=wrap;html=1;align=center;" vertex="1" parent="1">
          <mxGeometry x="40" y="260" width="100" height="40" as="geometry" />
        </mxCell>
        <mxCell id="tpq_mVO97tBHsx010xYn-25" value="" style="edgeStyle=orthogonalEdgeStyle;rounded=0;orthogonalLoop=1;jettySize=auto;html=1;entryX=0;entryY=0.25;entryDx=0;entryDy=0;endArrow=none;endFill=0;" edge="1" parent="1" source="tpq_mVO97tBHsx010xYn-14" target="tpq_mVO97tBHsx010xYn-2">
          <mxGeometry relative="1" as="geometry" />
        </mxCell>
        <mxCell id="tpq_mVO97tBHsx010xYn-14" value="姓名" style="ellipse;whiteSpace=wrap;html=1;align=center;" vertex="1" parent="1">
          <mxGeometry x="40" y="200" width="100" height="40" as="geometry" />
        </mxCell>
        <mxCell id="tpq_mVO97tBHsx010xYn-21" value="" style="edgeStyle=orthogonalEdgeStyle;rounded=0;orthogonalLoop=1;jettySize=auto;html=1;endArrow=none;endFill=0;" edge="1" parent="1" source="tpq_mVO97tBHsx010xYn-15" target="tpq_mVO97tBHsx010xYn-2">
          <mxGeometry relative="1" as="geometry" />
        </mxCell>
        <mxCell id="tpq_mVO97tBHsx010xYn-15" value="聯絡方式" style="ellipse;shape=doubleEllipse;margin=3;whiteSpace=wrap;html=1;align=center;" vertex="1" parent="1">
          <mxGeometry x="190" y="350" width="100" height="40" as="geometry" />
        </mxCell>
        <mxCell id="tpq_mVO97tBHsx010xYn-54" value="" style="edgeStyle=orthogonalEdgeStyle;rounded=0;orthogonalLoop=1;jettySize=auto;html=1;entryX=0.5;entryY=0;entryDx=0;entryDy=0;endArrow=none;endFill=0;" edge="1" parent="1" source="tpq_mVO97tBHsx010xYn-42" target="tpq_mVO97tBHsx010xYn-3">
          <mxGeometry relative="1" as="geometry" />
        </mxCell>
        <mxCell id="tpq_mVO97tBHsx010xYn-42" value="課程編號" style="ellipse;whiteSpace=wrap;html=1;align=center;fontStyle=4;" vertex="1" parent="1">
          <mxGeometry x="470" y="190" width="100" height="40" as="geometry" />
        </mxCell>
        <mxCell id="tpq_mVO97tBHsx010xYn-43" value="學號" style="ellipse;whiteSpace=wrap;html=1;align=center;fontStyle=4;" vertex="1" parent="1">
          <mxGeometry x="190" y="180" width="100" height="40" as="geometry" />
        </mxCell>
        <mxCell id="tpq_mVO97tBHsx010xYn-55" value="" style="edgeStyle=orthogonalEdgeStyle;rounded=0;orthogonalLoop=1;jettySize=auto;html=1;endArrow=none;endFill=0;" edge="1" parent="1" source="tpq_mVO97tBHsx010xYn-44" target="tpq_mVO97tBHsx010xYn-3">
          <mxGeometry relative="1" as="geometry" />
        </mxCell>
        <mxCell id="tpq_mVO97tBHsx010xYn-44" value="名稱" style="ellipse;whiteSpace=wrap;html=1;align=center;" vertex="1" parent="1">
          <mxGeometry x="600" y="260" width="100" height="40" as="geometry" />
        </mxCell>
        <mxCell id="tpq_mVO97tBHsx010xYn-45" value="授課地址" style="ellipse;whiteSpace=wrap;html=1;align=center;" vertex="1" parent="1">
          <mxGeometry x="470" y="330" width="100" height="40" as="geometry" />
        </mxCell>
        <mxCell id="tpq_mVO97tBHsx010xYn-46" value="" style="endArrow=none;html=1;rounded=0;" edge="1" parent="1">
          <mxGeometry relative="1" as="geometry">
            <mxPoint x="290" y="280" as="sourcePoint" />
            <mxPoint x="320" y="280" as="targetPoint" />
          </mxGeometry>
        </mxCell>
        <mxCell id="tpq_mVO97tBHsx010xYn-47" value="N" style="resizable=0;html=1;whiteSpace=wrap;align=right;verticalAlign=bottom;" connectable="0" vertex="1" parent="tpq_mVO97tBHsx010xYn-46">
          <mxGeometry x="1" relative="1" as="geometry" />
        </mxCell>
        <mxCell id="tpq_mVO97tBHsx010xYn-48" value="" style="endArrow=none;html=1;rounded=0;entryX=0;entryY=0.5;entryDx=0;entryDy=0;" edge="1" parent="1" target="tpq_mVO97tBHsx010xYn-3">
          <mxGeometry relative="1" as="geometry">
            <mxPoint x="440" y="280" as="sourcePoint" />
            <mxPoint x="600" y="280" as="targetPoint" />
          </mxGeometry>
        </mxCell>
        <mxCell id="tpq_mVO97tBHsx010xYn-49" value="M" style="resizable=0;html=1;whiteSpace=wrap;align=left;verticalAlign=bottom;" connectable="0" vertex="1" parent="tpq_mVO97tBHsx010xYn-48">
          <mxGeometry x="-1" relative="1" as="geometry" />
        </mxCell>
        <mxCell id="tpq_mVO97tBHsx010xYn-50" value="N" style="resizable=0;html=1;whiteSpace=wrap;align=right;verticalAlign=bottom;" connectable="0" vertex="1" parent="tpq_mVO97tBHsx010xYn-48">
          <mxGeometry x="1" relative="1" as="geometry" />
        </mxCell>
      </root>
    </mxGraphModel>
  </diagram>
</mxfile>
